<svg width="248" height="248" viewBox="0 0 248 248" fill="none" xmlns="http://www.w3.org/2000/svg">
<rect width="248" height="248" rx="18" fill="#FFFAF1"/>
<path d="M91.4927 231.125H150.993" stroke="#443B38" stroke-width="14.875" stroke-linecap="round" stroke-linejoin="round"/>
<path d="M121.243 201.375V231.125" stroke="#443B38" stroke-width="14.875" stroke-linecap="round" stroke-linejoin="round"/>
<path d="M188.18 174.461C169.891 191.786 145.561 201.288 120.371 200.945C95.1802 200.602 71.1185 190.441 53.3075 172.623C35.4965 154.806 25.3431 130.741 25.0085 105.551C24.674 80.3601 34.1848 56.0337 51.5163 37.75" stroke="#443B38" stroke-width="14.875" stroke-linecap="round" stroke-linejoin="round"/>
<path d="M121.243 24.9902C165.861 24.9903 202.032 61.1608 202.032 105.779C202.032 150.398 165.861 186.568 121.243 186.568C86.3494 186.568 56.6227 164.447 45.3218 133.464C46.9309 132.15 48.7066 130.341 50.4478 128.512C51.1305 127.794 51.8222 127.059 52.5347 126.302C53.8931 124.858 55.3264 123.334 56.9146 121.704C61.6968 116.795 67.2703 111.568 73.5288 107.532C79.7766 103.503 86.4141 100.853 93.3745 100.689C99.1831 100.553 105.679 102.136 112.841 106.814C102.147 118.399 97.2879 130.165 96.4604 141.052C95.6839 151.269 98.5476 160.23 102.943 166.736C107.102 172.893 113.522 178 120.434 178C126.65 178 132.537 174.568 136.984 169.952C141.539 165.224 145.184 158.68 146.825 151.117C149.783 137.478 146.139 121.149 131.048 106.248C138.887 99.9555 149.206 93.5939 162.663 87.459C165.678 86.0843 167.008 82.5258 165.633 79.5107C164.259 76.4957 160.699 75.1664 157.684 76.541C142.598 83.4188 130.794 90.8005 121.747 98.376C111.968 91.3499 102.333 88.4753 93.0923 88.6924C83.2173 88.9245 74.4336 92.6704 67.0259 97.4473C59.6286 102.217 53.3109 108.207 48.3188 113.331C46.6657 115.028 45.0886 116.704 43.686 118.194C42.9965 118.927 42.3488 119.616 41.7554 120.239C41.7524 120.242 41.7486 120.245 41.7456 120.248C40.8968 115.554 40.4536 110.718 40.4536 105.779C40.4536 61.1608 76.6241 24.9902 121.243 24.9902ZM122.197 114.371C135.072 126.829 137.104 139.32 135.097 148.573C133.923 153.987 131.332 158.521 128.341 161.626C125.242 164.843 122.273 166 120.434 166C119.291 166 116.044 164.692 112.886 160.019C109.965 155.694 107.86 149.408 108.426 141.961C109.018 134.174 112.633 124.539 122.197 114.371Z" fill="#48D1CC"/>
<path d="M184.936 15.8092C185.917 13.1391 189.693 13.1391 190.675 15.8092L200.484 42.5063C200.793 43.3484 201.457 44.012 202.299 44.3214L228.996 54.1307C231.666 55.1118 231.666 58.8882 228.996 59.8693L202.299 69.6786C201.457 69.988 200.793 70.6516 200.484 71.4937L190.675 98.1908C189.693 100.861 185.917 100.861 184.936 98.1908L175.127 71.4937C174.817 70.6516 174.154 69.988 173.312 69.6786L146.614 59.8693C143.944 58.8882 143.944 55.1118 146.614 54.1307L173.311 44.3214C174.154 44.012 174.817 43.3484 175.127 42.5063L184.936 15.8092Z" fill="#8E4585"/>
</svg>
