<svg width="275" height="82" viewBox="0 0 275 82" fill="none" xmlns="http://www.w3.org/2000/svg">
<path d="M112.643 9.56543C117.869 9.56547 122.297 10.7142 125.926 13.0127C129.555 15.3112 132.313 18.505 134.2 22.5938C136.087 26.6826 137.031 31.413 137.031 36.7842C137.031 42.1553 136.087 46.8857 134.2 50.9746C132.313 55.0635 129.555 58.2581 125.926 60.5566C122.297 62.8551 117.869 64.0039 112.643 64.0039C107.441 64.0039 103.025 62.8551 99.3955 60.5566C95.7662 58.2581 92.9954 55.0636 91.084 50.9746C89.1969 46.8858 88.2539 42.1553 88.2539 36.7842C88.254 31.413 89.1968 26.6826 91.084 22.5938C92.9954 18.5048 95.7663 15.3112 99.3955 13.0127C103.025 10.7142 107.441 9.56543 112.643 9.56543ZM20.6504 10.6543C21.1584 10.6543 21.7633 10.6782 22.4648 10.7266C23.1665 10.7508 23.8448 10.8234 24.498 10.9443C27.3287 11.3799 29.7 12.3476 31.6113 13.8477C33.5468 15.3477 34.9981 17.2475 35.9658 19.5459C36.9336 21.8202 37.418 24.3485 37.418 27.1309C37.4179 29.889 36.9217 32.4173 35.9297 34.7158C34.9619 36.9902 33.5098 38.8898 31.5742 40.4141C29.663 41.9139 27.3043 42.8819 24.498 43.3174C23.8448 43.4142 23.1665 43.4868 22.4648 43.5352C21.7633 43.5835 21.1584 43.6074 20.6504 43.6074H6.45996V62.915H0V10.6543H20.6504ZM65.3076 10.6543C65.8157 10.6543 66.4205 10.6782 67.1221 10.7266C67.8236 10.7508 68.5011 10.8234 69.1543 10.9443C71.985 11.3798 74.3562 12.3476 76.2676 13.8477C78.2032 15.3478 79.6552 17.2474 80.623 19.5459C81.5908 21.8202 82.0752 24.3485 82.0752 27.1309C82.0752 31.1714 81.0219 34.6793 78.917 37.6553C77.4478 39.7155 75.501 41.2379 73.0771 42.2256L83.1631 62.915H75.7598L66.4033 43.6074H51.1172V62.915H44.6572V10.6543H65.3076ZM112.643 15.7344C108.747 15.7102 105.505 16.5815 102.916 18.3477C100.351 20.1139 98.4159 22.5824 97.1094 25.752C95.8029 28.9214 95.1375 32.5987 95.1133 36.7842C95.0891 40.9457 95.7296 44.5998 97.0361 47.7451C98.3427 50.8905 100.291 53.358 102.88 55.1484C105.493 56.9146 108.747 57.8098 112.643 57.834C116.538 57.8581 119.78 56.9879 122.369 55.2217C124.982 53.4312 126.93 50.9508 128.212 47.7812C129.518 44.6117 130.172 40.9457 130.172 36.7842C130.172 32.5987 129.518 28.9333 128.212 25.7881C126.93 22.6429 124.982 20.1871 122.369 18.4209C119.78 16.6547 116.538 15.7586 112.643 15.7344ZM6.45996 37.4736H20.4326C20.8923 37.4736 21.4126 37.4497 21.9932 37.4014C22.598 37.353 23.1669 37.2684 23.6992 37.1475C25.3685 36.7604 26.7233 36.059 27.7637 35.043C28.8283 34.0026 29.603 32.7922 30.0869 31.4131C30.5707 30.0099 30.8125 28.5824 30.8125 27.1309C30.8125 25.6793 30.5707 24.2638 30.0869 22.8848C29.603 21.4814 28.8283 20.2591 27.7637 19.2188C26.7233 18.1785 25.3685 17.4772 23.6992 17.1143C23.1669 16.9691 22.598 16.8836 21.9932 16.8594C21.4126 16.811 20.8923 16.7871 20.4326 16.7871H6.45996V37.4736ZM51.1172 37.4736H65.0898C65.5495 37.4736 66.0697 37.4498 66.6504 37.4014C67.2553 37.353 67.8242 37.2684 68.3564 37.1475C70.0256 36.7604 71.3806 36.059 72.4209 35.043C73.4855 34.0026 74.2593 32.7922 74.7432 31.4131C75.227 30.0098 75.4697 28.5825 75.4697 27.1309C75.4697 25.6792 75.227 24.2638 74.7432 22.8848C74.2593 21.4814 73.4855 20.2591 72.4209 19.2188C71.3806 18.1785 70.0257 17.4772 68.3564 17.1143C67.8242 16.9691 67.2553 16.8836 66.6504 16.8594C66.0697 16.811 65.5495 16.7871 65.0898 16.7871H51.1172V37.4736Z" fill="#FFFAF1"/>
<path d="M248.578 35.377C251.602 30.3206 254.603 26.5397 257.58 24.0352C260.581 21.507 263.629 20.2432 266.725 20.2432C268.166 20.2432 269.406 20.5144 270.445 21.0576C271.485 21.6011 272.336 22.3459 272.998 23.291C273.66 24.2361 274.144 25.3588 274.451 26.6582C274.758 27.934 274.911 29.3163 274.911 30.8047C274.911 32.3878 274.746 34.1244 274.415 36.0146C274.108 37.8812 273.647 39.7477 273.033 41.6143C271.828 45.3002 270.257 48.514 268.319 51.2549C266.405 53.9957 264.303 56.2879 262.011 58.1309C259.743 59.9501 257.392 61.3207 254.958 62.2422C252.524 63.14 250.197 63.5889 247.976 63.5889C246.771 63.5889 245.731 63.4466 244.856 63.1631C244.006 62.8796 243.309 62.4307 242.766 61.8164C242.222 61.2021 241.809 60.4102 241.525 59.4414C241.242 58.4728 241.088 57.3153 241.064 55.9688L231.743 81.5928H226.498L238.68 48.1689C237.439 50.2532 236.238 52.1214 235.074 53.7715C233.515 55.9924 231.943 57.8349 230.36 59.2998C228.801 60.7411 227.206 61.8166 225.576 62.5254C223.946 63.2342 222.209 63.5889 220.366 63.5889C218.925 63.5889 217.649 63.364 216.538 62.915C215.451 62.4898 214.542 61.8755 213.81 61.0723C213.054 60.2689 212.486 59.3001 212.108 58.166C211.73 57.032 211.541 55.7679 211.541 54.374C211.541 53.1454 211.695 51.7979 212.002 50.333C212.285 48.8682 212.71 47.3322 213.277 45.7256L222.315 20.916H227.561L218.523 45.7256C218.193 46.6471 217.861 47.5928 217.53 48.5615C217.2 49.5065 216.904 50.4515 216.645 51.3965C216.408 52.3179 216.207 53.2157 216.042 54.0898C215.9 54.9405 215.829 55.7324 215.829 56.4648C215.829 58.0951 216.255 59.3946 217.105 60.3633C217.98 61.332 219.326 61.8164 221.146 61.8164C222.729 61.8164 224.253 61.4742 225.718 60.7891C227.206 60.1039 228.671 59.0755 230.112 57.7051C231.577 56.311 233.043 54.5744 234.508 52.4951C235.973 50.3924 237.496 47.947 239.079 45.1592L240.923 41.8984L240.956 41.9219L249.039 19.7471H254.284L248.578 35.377ZM166.565 20.916H177.197V22.334H166.033L157.527 45.7256C157.197 46.6471 156.866 47.5928 156.535 48.5615C156.228 49.5301 155.944 50.4867 155.685 51.4316C155.448 52.3531 155.247 53.2517 155.082 54.126C154.94 54.9764 154.869 55.7561 154.869 56.4648C154.869 58.0951 155.306 59.3946 156.181 60.3633C157.079 61.332 158.425 61.8164 160.221 61.8164C161.969 61.8164 163.67 61.4857 165.324 60.8242C166.978 60.1626 168.609 59.1468 170.216 57.7764C171.822 56.406 173.417 54.6808 175 52.6016C176.583 50.4987 178.178 48.0181 179.785 45.1592L181.445 42.2197L189.213 20.916H194.458L188.256 37.9287C190.193 34.5972 191.966 31.8091 193.572 29.5645C195.179 27.2964 196.667 25.4768 198.037 24.1064C199.407 22.7125 200.695 21.7196 201.9 21.1289C203.105 20.5382 204.288 20.2432 205.445 20.2432C207.005 20.2432 208.222 20.7036 209.096 21.625C209.994 22.5465 210.442 23.7517 210.442 25.2402C210.442 25.8546 210.36 26.4456 210.194 27.0127C210.053 27.556 209.828 28.0281 209.521 28.4297C209.237 28.8312 208.883 29.1505 208.458 29.3867C208.033 29.623 207.56 29.7412 207.04 29.7412C206.662 29.7412 206.283 29.6826 205.905 29.5645C205.551 29.4463 205.233 29.2684 204.949 29.0322C204.666 28.7724 204.429 28.4656 204.24 28.1113C204.075 27.757 203.992 27.3435 203.992 26.8711C203.992 26.493 204.051 26.1144 204.169 25.7363C204.311 25.3347 204.5 24.9925 204.736 24.709C204.973 24.4018 205.256 24.1539 205.587 23.9648C205.918 23.7758 206.284 23.6807 206.686 23.6807C206.945 23.6807 207.193 23.7047 207.43 23.752C207.477 23.7991 207.536 23.8464 207.606 23.8936C207.701 23.9171 207.772 23.9287 207.819 23.9287C208.008 23.9287 208.104 23.7634 208.104 23.4326C208.103 23.0546 207.855 22.6768 207.358 22.2988C206.886 21.8972 206.189 21.6963 205.268 21.6963C204.323 21.6963 203.295 21.9915 202.185 22.582C201.074 23.1491 199.809 24.1649 198.392 25.6299C196.974 27.0948 195.38 29.0919 193.607 31.6201C191.859 34.1483 189.874 37.3737 187.653 41.2959L185.881 44.4141L179.183 62.915H173.901L179.124 48.5869C177.825 50.7174 176.559 52.5883 175.319 54.1963C173.571 56.4409 171.834 58.2603 170.109 59.6543C168.408 61.0483 166.671 62.0527 164.899 62.667C163.151 63.2813 161.332 63.5888 159.441 63.5889C158 63.5889 156.724 63.364 155.613 62.915C154.503 62.4897 153.581 61.8756 152.849 61.0723C152.093 60.2689 151.525 59.3001 151.147 58.166C150.746 57.032 150.545 55.7679 150.545 54.374C150.545 53.1454 150.687 51.7979 150.971 50.333C151.254 48.8682 151.692 47.3322 152.282 45.7256L160.788 22.334H150.971V20.916H161.319L164.687 11.6309H169.932L166.565 20.916ZM265.52 22.0146C264.267 22.0146 262.968 22.381 261.621 23.1133C260.298 23.8221 258.974 24.791 257.651 26.0195C256.328 27.2482 255.029 28.6783 253.753 30.3086C252.501 31.9389 251.307 33.6756 250.173 35.5186C249.039 37.3615 247.987 39.252 247.019 41.1895C246.073 43.1269 245.258 45.0174 244.573 46.8604C243.888 48.6795 243.344 50.404 242.942 52.0342C242.564 53.6643 242.376 55.0822 242.376 56.2871C242.376 57.1141 242.47 57.8945 242.659 58.627C242.848 59.3356 243.143 59.9616 243.545 60.5049C243.97 61.0246 244.49 61.438 245.104 61.7451C245.742 62.0287 246.499 62.1709 247.373 62.1709C248.507 62.1709 249.866 61.8633 251.449 61.249C253.056 60.611 254.733 59.5239 256.481 57.9883C258.253 56.4525 260.026 54.3851 261.798 51.7861C263.594 49.1871 265.248 45.9146 266.76 41.9688C267.28 40.622 267.74 39.287 268.142 37.9639C268.543 36.6408 268.886 35.3769 269.17 34.1719C269.453 32.9432 269.666 31.7967 269.808 30.7334C269.973 29.6703 270.056 28.7253 270.056 27.8984C270.056 26.0792 269.689 24.65 268.957 23.6104C268.225 22.5471 267.079 22.0147 265.52 22.0146ZM222.555 1.51562C222.451 0.216993 224.023 -0.507414 224.942 0.415039L229.496 4.98242C229.786 5.27337 230.189 5.42234 230.599 5.38965L237.027 4.87695C238.326 4.7733 239.05 6.3438 238.128 7.26367L233.561 11.8174C233.27 12.1074 233.121 12.5105 233.153 12.9199L233.666 19.3496C233.769 20.6481 232.199 21.3716 231.279 20.4492L226.726 15.8818C226.436 15.591 226.032 15.442 225.623 15.4746L219.193 15.9883C217.895 16.0916 217.171 14.5203 218.094 13.6006L222.661 9.04688C222.952 8.75681 223.101 8.35381 223.068 7.94434L222.555 1.51562Z" fill="#AC64A2"/>
</svg>
